<svg width="243" height="78" viewBox="0 0 243 78" fill="none" xmlns="http://www.w3.org/2000/svg">
<g filter="url(#filter0_d_1104_1953)">
<rect x="11.1741" y="4.24439" width="220.302" height="55.5116" rx="11.8605" fill="#363738"/>
<path d="M35.0345 43.4394C33.7843 43.4394 32.601 43.3277 31.4847 43.1045C30.3685 42.8812 29.1517 42.4905 27.8345 41.9324V36.3064C29.2187 37.1101 30.5247 37.6682 31.7526 37.9808C32.9805 38.271 34.1303 38.4161 35.2019 38.4161C35.8494 38.4161 36.4075 38.3603 36.8764 38.2487C37.3452 38.137 37.7024 37.9473 37.948 37.6794C38.2159 37.4115 38.3498 37.0319 38.3498 36.5408C38.3498 35.9826 38.1824 35.5473 37.8475 35.2347C37.5126 34.8998 36.9992 34.565 36.3071 34.2301C35.6373 33.8729 34.7778 33.404 33.7285 32.8236C32.5229 32.1315 31.5071 31.4617 30.681 30.8143C29.8773 30.1445 29.2745 29.3854 28.8726 28.537C28.4708 27.6887 28.2698 26.6505 28.2698 25.4226C28.2698 24.0384 28.5378 22.8552 29.0736 21.8729C29.6317 20.8905 30.5136 20.1426 31.7192 19.6291C32.9247 19.0933 34.5098 18.8254 36.4745 18.8254C38.1043 18.8254 39.5554 18.9929 40.828 19.3277C42.1005 19.6403 43.2503 20.0533 44.2773 20.5668L42.4354 25.2217C41.4085 24.7082 40.4373 24.3622 39.5219 24.1836C38.6066 23.9826 37.7805 23.8822 37.0438 23.8822C36.508 23.8822 36.028 23.938 35.6038 24.0496C35.1796 24.1612 34.8447 24.351 34.5992 24.6189C34.3759 24.8645 34.2643 25.2329 34.2643 25.724C34.2643 26.1259 34.3759 26.4831 34.5992 26.7957C34.8447 27.0859 35.2912 27.4208 35.9387 27.8003C36.6085 28.1798 37.5573 28.6933 38.7852 29.3408C39.7898 29.8543 40.7164 30.4124 41.5647 31.0152C42.4131 31.5957 43.094 32.3212 43.6075 33.1919C44.121 34.0403 44.3778 35.1343 44.3778 36.4738C44.3778 37.3668 44.2326 38.2264 43.9424 39.0524C43.6522 39.8784 43.1498 40.6264 42.4354 41.2961C41.7433 41.9436 40.7945 42.4682 39.5889 42.8701C38.3833 43.2496 36.8652 43.4394 35.0345 43.4394ZM47.9144 43.1045V19.1938H63.9889V24.217H53.641V28.3026H63.5535V33.3259H53.641V38.0812H63.9889V43.1045H47.9144Z" fill="#28EEA7"/>
<path d="M78.0344 43.1045V19.1938H94.1088V24.217H83.7609V29.2068H93.7069V34.2301H83.7609V43.1045H78.0344ZM96.2724 43.1045L102.3 19.0933H109.969L116.031 43.1045H110.204L107.324 28.9389C107.212 28.3584 107.078 27.711 106.922 26.9966C106.788 26.2822 106.654 25.5789 106.52 24.8868C106.408 24.1947 106.308 23.6031 106.218 23.1119C106.152 23.6031 106.051 24.1947 105.917 24.8868C105.783 25.5789 105.638 26.2822 105.482 26.9966C105.348 27.711 105.214 28.3584 105.08 28.9389L101.965 43.1045H96.2724ZM102.166 38.1817L102.87 33.4598H109.299L109.869 38.1817H102.166ZM127.337 43.4394C125.171 43.4394 123.363 42.9482 121.911 41.9659C120.46 40.9836 119.366 39.5994 118.63 37.8133C117.893 36.005 117.524 33.884 117.524 31.4505C117.524 29.4636 117.781 27.6887 118.295 26.1259C118.808 24.5631 119.556 23.2459 120.538 22.1743C121.521 21.0803 122.704 20.2543 124.088 19.6961C125.495 19.138 127.08 18.8589 128.844 18.8589C129.893 18.8589 130.92 18.9705 131.924 19.1938C132.951 19.3947 134.012 19.7184 135.106 20.165L133.532 25.1212C132.751 24.7417 131.958 24.4738 131.154 24.3175C130.351 24.1389 129.614 24.0496 128.944 24.0496C127.917 24.0496 127.046 24.2282 126.332 24.5854C125.618 24.9203 125.048 25.4115 124.624 26.0589C124.222 26.7063 123.921 27.4877 123.72 28.4031C123.541 29.3184 123.452 30.3454 123.452 31.484C123.452 33.1138 123.619 34.431 123.954 35.4357C124.311 36.418 124.847 37.1436 125.562 37.6124C126.298 38.0589 127.225 38.2822 128.341 38.2822C129.234 38.2822 130.217 38.1482 131.288 37.8803C132.36 37.6124 133.331 37.2105 134.202 36.6747V42.0664C133.152 42.5352 132.036 42.8812 130.853 43.1045C129.67 43.3277 128.498 43.4394 127.337 43.4394ZM143.364 43.1045V24.217H136.935V19.1938H155.688V24.217H149.225V43.1045H143.364ZM166.391 43.4394C164.784 43.4394 163.389 43.1715 162.205 42.6357C161.022 42.0998 160.051 41.3073 159.292 40.258C158.533 39.2087 157.963 37.925 157.584 36.4068C157.204 34.8664 157.015 33.1026 157.015 31.1157C157.015 28.4366 157.349 26.1929 158.019 24.3845C158.711 22.5538 159.749 21.1696 161.134 20.2319C162.518 19.2943 164.27 18.8254 166.391 18.8254C167.999 18.8254 169.394 19.1045 170.577 19.6626C171.761 20.1984 172.732 20.991 173.491 22.0403C174.272 23.0896 174.842 24.3845 175.199 25.925C175.578 27.4431 175.768 29.1845 175.768 31.1491C175.768 33.0915 175.578 34.8329 175.199 36.3733C174.842 37.8915 174.283 39.1752 173.524 40.2245C172.765 41.2738 171.794 42.0775 170.611 42.6357C169.428 43.1715 168.021 43.4394 166.391 43.4394ZM166.391 38.4161C167.24 38.4161 167.909 38.1594 168.401 37.6459C168.892 37.1324 169.238 36.3287 169.439 35.2347C169.662 34.1408 169.774 32.7454 169.774 31.0487C169.774 28.5929 169.528 26.7845 169.037 25.6236C168.568 24.4626 167.686 23.8822 166.391 23.8822C165.565 23.8822 164.907 24.1277 164.416 24.6189C163.924 25.0877 163.567 25.858 163.344 26.9296C163.121 27.9789 163.009 29.3743 163.009 31.1157C163.009 32.8347 163.109 34.2412 163.31 35.3352C163.534 36.4068 163.891 37.1882 164.382 37.6794C164.896 38.1705 165.565 38.4161 166.391 38.4161ZM178.434 43.1045V19.1938H185.969C187.956 19.1938 189.586 19.4617 190.858 19.9975C192.153 20.511 193.113 21.2812 193.738 22.3082C194.386 23.3352 194.709 24.6077 194.709 26.1259C194.709 27.1305 194.575 28.0347 194.308 28.8384C194.04 29.6198 193.627 30.3343 193.068 30.9817C192.533 31.6068 191.863 32.1761 191.059 32.6896L196.35 43.1045H190.122L186.27 34.4645H183.926V43.1045H178.434ZM185.935 29.6087C186.538 29.6087 187.085 29.5082 187.576 29.3073C188.068 29.1063 188.458 28.7938 188.748 28.3696C189.039 27.9454 189.184 27.3873 189.184 26.6952C189.184 25.8691 188.927 25.2217 188.414 24.7529C187.922 24.284 187.152 24.0496 186.103 24.0496H183.926V29.6087H185.935ZM203.638 43.1045V33.8617L197.007 19.1938H203.169L206.618 27.6998L210.001 19.1938H216.095L209.498 33.8617V43.1045H203.638Z" fill="#FCFCFD"/>
<rect x="11.1741" y="4.24439" width="220.302" height="55.5116" rx="11.8605" stroke="#28EEA7" stroke-width="4.18605"/>
</g>
<defs>
<filter id="filter0_d_1104_1953" x="0.627906" y="0.604651" width="241.396" height="76.7442" filterUnits="userSpaceOnUse" color-interpolation-filters="sRGB">
<feFlood flood-opacity="0" result="BackgroundImageFix"/>
<feColorMatrix in="SourceAlpha" type="matrix" values="0 0 0 0 0 0 0 0 0 0 0 0 0 0 0 0 0 0 127 0" result="hardAlpha"/>
<feOffset dy="6.97675"/>
<feGaussianBlur stdDeviation="4.18605"/>
<feComposite in2="hardAlpha" operator="out"/>
<feColorMatrix type="matrix" values="0 0 0 0 0 0 0 0 0 0 0 0 0 0 0 0 0 0 0.25 0"/>
<feBlend mode="normal" in2="BackgroundImageFix" result="effect1_dropShadow_1104_1953"/>
<feBlend mode="normal" in="SourceGraphic" in2="effect1_dropShadow_1104_1953" result="shape"/>
</filter>
</defs>
</svg>
