<svg width="163" height="60" viewBox="0 0 163 60" fill="none" xmlns="http://www.w3.org/2000/svg">
<rect x="10" y="10" width="143" height="40" rx="9.3" fill="#363738"/>
<path d="M28 21C25.239 21 23 23.239 23 26V34C23 36.761 25.239 39 28 39H36C38.761 39 41 36.761 41 34V26C41 23.239 38.761 21 36 21H28ZM38 23C38.552 23 39 23.448 39 24C39 24.552 38.552 25 38 25C37.448 25 37 24.552 37 24C37 23.448 37.448 23 38 23ZM32 25C34.761 25 37 27.239 37 30C37 32.761 34.761 35 32 35C29.239 35 27 32.761 27 30C27 27.239 29.239 25 32 25ZM32 27C31.2044 27 30.4413 27.3161 29.8787 27.8787C29.3161 28.4413 29 29.2044 29 30C29 30.7956 29.3161 31.5587 29.8787 32.1213C30.4413 32.6839 31.2044 33 32 33C32.7956 33 33.5587 32.6839 34.1213 32.1213C34.6839 31.5587 35 30.7956 35 30C35 29.2044 34.6839 28.4413 34.1213 27.8787C33.5587 27.3161 32.7956 27 32 27Z" fill="white"/>
<path d="M55.4481 35.5V33.5L57.7681 33.244V26.332L55.4481 26.076V24.076H62.8081V26.076L60.4721 26.332V33.244L62.8081 33.5V35.5H55.4481ZM64.5619 35.5V24.076H68.3539L70.5139 32.988H70.5779C70.5459 32.6253 70.5139 32.284 70.4819 31.964C70.4605 31.644 70.4392 31.3453 70.4179 31.068C70.4072 30.78 70.3965 30.508 70.3859 30.252C70.3752 29.996 70.3699 29.74 70.3699 29.484V24.076H72.8819V35.5H69.1859L66.9619 26.668H66.8979C66.9405 27.212 66.9725 27.6653 66.9939 28.028C67.0152 28.3907 67.0312 28.6947 67.0419 28.94C67.0525 29.1853 67.0579 29.4093 67.0579 29.612C67.0685 29.8147 67.0739 30.028 67.0739 30.252V35.5H64.5619ZM77.9156 35.66C77.3183 35.66 76.753 35.6067 76.2196 35.5C75.6863 35.3933 75.105 35.2067 74.4756 34.94V32.252C75.137 32.636 75.761 32.9027 76.3476 33.052C76.9343 33.1907 77.4836 33.26 77.9956 33.26C78.305 33.26 78.5716 33.2333 78.7956 33.18C79.0196 33.1267 79.1903 33.036 79.3076 32.908C79.4356 32.78 79.4996 32.5987 79.4996 32.364C79.4996 32.0973 79.4196 31.8893 79.2596 31.74C79.0996 31.58 78.8543 31.42 78.5236 31.26C78.2036 31.0893 77.793 30.8653 77.2916 30.588C76.7156 30.2573 76.2303 29.9373 75.8356 29.628C75.4516 29.308 75.1636 28.9453 74.9716 28.54C74.7796 28.1347 74.6836 27.6387 74.6836 27.052C74.6836 26.3907 74.8116 25.8253 75.0676 25.356C75.3343 24.8867 75.7556 24.5293 76.3316 24.284C76.9076 24.028 77.665 23.9 78.6036 23.9C79.3823 23.9 80.0756 23.98 80.6836 24.14C81.2916 24.2893 81.841 24.4867 82.3316 24.732L81.4516 26.956C80.961 26.7107 80.497 26.5453 80.0596 26.46C79.6223 26.364 79.2276 26.316 78.8756 26.316C78.6196 26.316 78.3903 26.3427 78.1876 26.396C77.985 26.4493 77.825 26.54 77.7076 26.668C77.601 26.7853 77.5476 26.9613 77.5476 27.196C77.5476 27.388 77.601 27.5587 77.7076 27.708C77.825 27.8467 78.0383 28.0067 78.3476 28.188C78.6676 28.3693 79.121 28.6147 79.7076 28.924C80.1876 29.1693 80.6303 29.436 81.0356 29.724C81.441 30.0013 81.7663 30.348 82.0116 30.764C82.257 31.1693 82.3796 31.692 82.3796 32.332C82.3796 32.7587 82.3103 33.1693 82.1716 33.564C82.033 33.9587 81.793 34.316 81.4516 34.636C81.121 34.9453 80.6676 35.196 80.0916 35.388C79.5156 35.5693 78.7903 35.66 77.9156 35.66ZM86.5014 35.5V26.476H83.4294V24.076H92.3894V26.476H89.3014V35.5H86.5014ZM92.7831 35.5L95.6631 24.028H99.3271L102.223 35.5H99.4391L98.0631 28.732C98.0098 28.4547 97.9458 28.1453 97.8711 27.804C97.8071 27.4627 97.7431 27.1267 97.6791 26.796C97.6258 26.4653 97.5778 26.1827 97.5351 25.948C97.5031 26.1827 97.4551 26.4653 97.3911 26.796C97.3271 27.1267 97.2578 27.4627 97.1831 27.804C97.1191 28.1453 97.0551 28.4547 96.9911 28.732L95.5031 35.5H92.7831ZM95.5991 33.148L95.9351 30.892H99.0071L99.2791 33.148H95.5991ZM107.945 35.66C106.729 35.66 105.726 35.4307 104.937 34.972C104.148 34.5027 103.561 33.836 103.177 32.972C102.804 32.108 102.617 31.084 102.617 29.9C102.617 28.652 102.814 27.58 103.209 26.684C103.614 25.788 104.212 25.1053 105.001 24.636C105.79 24.156 106.761 23.916 107.913 23.916C108.574 23.916 109.182 23.9853 109.737 24.124C110.292 24.2627 110.788 24.4333 111.225 24.636L110.393 26.908C110.041 26.7267 109.678 26.588 109.305 26.492C108.942 26.3853 108.569 26.332 108.185 26.332C107.588 26.332 107.076 26.4653 106.649 26.732C106.233 26.988 105.918 27.3773 105.705 27.9C105.492 28.412 105.385 29.052 105.385 29.82C105.385 30.492 105.47 31.084 105.641 31.596C105.822 32.108 106.089 32.508 106.441 32.796C106.804 33.0733 107.262 33.212 107.817 33.212C107.945 33.212 108.084 33.2013 108.233 33.18C108.393 33.1587 108.564 33.1267 108.745 33.084V31.036H107.417V28.812H111.257V34.972C110.649 35.2173 110.078 35.3933 109.545 35.5C109.022 35.6067 108.489 35.66 107.945 35.66ZM112.851 35.5V24.076H116.451C117.4 24.076 118.179 24.204 118.787 24.46C119.405 24.7053 119.864 25.0733 120.163 25.564C120.472 26.0547 120.627 26.6627 120.627 27.388C120.627 27.868 120.563 28.3 120.435 28.684C120.307 29.0573 120.109 29.3987 119.843 29.708C119.587 30.0067 119.267 30.2787 118.883 30.524L121.411 35.5H118.435L116.595 31.372H115.475V35.5H112.851ZM116.435 29.052C116.723 29.052 116.984 29.004 117.219 28.908C117.453 28.812 117.64 28.6627 117.779 28.46C117.917 28.2573 117.987 27.9907 117.987 27.66C117.987 27.2653 117.864 26.956 117.619 26.732C117.384 26.508 117.016 26.396 116.515 26.396H115.475V29.052H116.435ZM121.564 35.5L124.444 24.028H128.108L131.004 35.5H128.22L126.844 28.732C126.791 28.4547 126.727 28.1453 126.652 27.804C126.588 27.4627 126.524 27.1267 126.46 26.796C126.407 26.4653 126.359 26.1827 126.316 25.948C126.284 26.1827 126.236 26.4653 126.172 26.796C126.108 27.1267 126.039 27.4627 125.964 27.804C125.9 28.1453 125.836 28.4547 125.772 28.732L124.284 35.5H121.564ZM124.38 33.148L124.716 30.892H127.788L128.06 33.148H124.38ZM131.558 35.5V24.076H135.158L135.814 30.572H135.862L136.566 24.076H140.198V35.5H137.814V32.94C137.814 32.8227 137.825 32.604 137.846 32.284C137.867 31.9533 137.894 31.564 137.926 31.116C137.969 30.668 138.006 30.204 138.038 29.724C138.081 29.244 138.118 28.7853 138.15 28.348C138.193 27.9107 138.225 27.5427 138.246 27.244C138.267 26.9453 138.278 26.7587 138.278 26.684H138.214L137.19 32.972H134.534L133.478 26.668H133.414C133.414 26.7427 133.425 26.9347 133.446 27.244C133.467 27.5427 133.499 27.9107 133.542 28.348C133.585 28.7853 133.622 29.2493 133.654 29.74C133.697 30.22 133.739 30.684 133.782 31.132C133.825 31.5693 133.857 31.9533 133.878 32.284C133.899 32.6147 133.91 32.8387 133.91 32.956V35.5H131.558Z" fill="#FCFCFD"/>
</svg>
