<svg width="144" height="60" viewBox="0 0 144 60" fill="none" xmlns="http://www.w3.org/2000/svg">
<rect x="10" y="10" width="124" height="40" rx="9.3" fill="#363738"/>
<path d="M25.6797 20L27.1582 25.3438V27.9062H28.4395V25.3438L29.9375 20H28.6465L28.1094 22.4316C27.9584 23.1416 27.8624 23.6463 27.8184 23.9473H27.7793C27.7163 23.5263 27.6203 23.0179 27.4883 22.4219L26.9707 20H25.6797ZM31.4316 22.0176C30.9976 22.0176 30.6479 22.1024 30.3809 22.2754C30.1139 22.4474 29.917 22.7226 29.791 23.0996C29.666 23.4766 29.6035 23.9757 29.6035 24.5977V25.4375C29.6035 26.0525 29.6576 26.545 29.7676 26.916C29.8776 27.287 30.0632 27.5603 30.3242 27.7363C30.5852 27.9123 30.9443 28 31.4023 28C31.8483 28 32.2029 27.9132 32.4629 27.7402C32.7229 27.5672 32.9113 27.2959 33.0273 26.9219C33.1433 26.5479 33.2012 26.0535 33.2012 25.4375V24.5977C33.2012 23.9767 33.1424 23.4795 33.0234 23.1055C32.9044 22.7325 32.715 22.4572 32.457 22.2812C32.199 22.1053 31.8586 22.0176 31.4316 22.0176ZM33.8789 22.1309V26.4453C33.8789 26.9793 33.9684 27.372 34.1504 27.623C34.3324 27.874 34.615 28 34.998 28C35.55 28 35.9662 27.7332 36.2422 27.1992H36.2695L36.3828 27.9062H37.4004V22.1309H36.1016V26.7188C36.0516 26.8258 35.9751 26.9134 35.8711 26.9824C35.7671 27.0524 35.6599 27.0859 35.5469 27.0859C35.4149 27.0859 35.3207 27.0319 35.2637 26.9219C35.2067 26.8119 35.1777 26.6271 35.1777 26.3691V22.1309H33.8789ZM31.4023 22.9121C31.5843 22.9121 31.7132 23.0072 31.7852 23.1992C31.8572 23.3902 31.8926 23.6944 31.8926 24.1094V25.9082C31.8926 26.3352 31.8572 26.644 31.7852 26.832C31.7132 27.02 31.5853 27.1142 31.4043 27.1152C31.2223 27.1152 31.0963 27.02 31.0273 26.832C30.9573 26.644 30.9238 26.3352 30.9238 25.9082V24.1094C30.9238 23.6954 30.9593 23.3912 31.0312 23.1992C31.1032 23.0082 31.2263 22.9121 31.4023 22.9121ZM25 29C23.9 29 23 29.9 23 31V38C23 39.1 23.9 40 25 40H39C40.1 40 41 39.1 41 38V31C41 29.9 40.1 29 39 29H25ZM32.0488 31H33.1055V33.5684H33.1133C33.2083 33.3824 33.3445 33.2331 33.5195 33.1191C33.6945 33.0051 33.8839 32.9492 34.0859 32.9492C34.3459 32.9492 34.5493 33.0183 34.6973 33.1562C34.8453 33.2942 34.9535 33.5172 35.0195 33.8242C35.0855 34.1322 35.1172 34.5595 35.1172 35.1055V35.877H35.1191C35.1191 36.604 35.0305 37.1365 34.8555 37.4785C34.6805 37.8205 34.4081 37.9922 34.0371 37.9922C33.8301 37.9922 33.6427 37.9446 33.4727 37.8496C33.3027 37.7546 33.1748 37.624 33.0898 37.459H33.0664L32.9551 37.9199H32.0488V31ZM25.4863 31.2461H28.7383V32.1309H27.6484V37.9199H26.5762V32.1309H25.4863V31.2461ZM37.0977 32.9512C37.4737 32.9512 37.7628 33.0202 37.9648 33.1582C38.1658 33.2962 38.3076 33.5117 38.3906 33.8027C38.4726 34.0947 38.5137 34.4977 38.5137 35.0117V35.8477H36.6777V36.0957C36.6777 36.4087 36.6861 36.6428 36.7051 36.7988C36.7241 36.9548 36.7623 37.0696 36.8203 37.1406C36.8783 37.2126 36.9678 37.248 37.0898 37.248C37.2538 37.248 37.3667 37.1836 37.4277 37.0566C37.4887 36.9296 37.5223 36.7189 37.5273 36.4219L38.4746 36.4766C38.4796 36.5186 38.4824 36.5783 38.4824 36.6523C38.4824 37.1033 38.3583 37.4401 38.1113 37.6621C37.8643 37.8851 37.5174 37.9961 37.0664 37.9961C36.5254 37.9961 36.1457 37.8253 35.9277 37.4863C35.7097 37.1473 35.6016 36.6231 35.6016 35.9121V35.0605C35.6016 34.3285 35.7145 33.794 35.9395 33.457C36.1645 33.12 36.5517 32.9512 37.0977 32.9512ZM28.4102 33.0449H29.5098V36.625C29.5098 36.842 29.534 36.9978 29.582 37.0898C29.63 37.1828 29.7083 37.2285 29.8203 37.2285C29.9153 37.2285 30.0087 37.1996 30.0957 37.1406C30.1837 37.0826 30.2461 37.008 30.2891 36.918V33.0449H31.3887V37.9199H31.3867H30.5273L30.4336 37.3223H30.4082C30.1742 37.7743 29.8244 38 29.3574 38C29.0334 38 28.7966 37.8936 28.6426 37.6816C28.4886 37.4696 28.4102 37.1375 28.4102 36.6875V33.0449ZM37.0742 33.6934C36.9572 33.6934 36.8705 33.7289 36.8145 33.7969C36.7585 33.8659 36.7211 33.9788 36.7031 34.1348C36.6841 34.2908 36.6758 34.5277 36.6758 34.8457V35.1953H37.4785V34.8457C37.4785 34.5327 37.4683 34.2968 37.4473 34.1348C37.4273 33.9728 37.388 33.859 37.332 33.793C37.276 33.727 37.1912 33.6934 37.0742 33.6934ZM33.5918 33.7285C33.4858 33.7285 33.3888 33.7705 33.2988 33.8555C33.2088 33.9405 33.1444 34.0496 33.1074 34.1816V36.9492C33.1554 37.0342 33.2179 37.0976 33.2949 37.1406C33.3719 37.1826 33.4539 37.2051 33.5449 37.2051C33.6619 37.2051 33.7533 37.1631 33.8223 37.0781C33.8913 36.9931 33.9417 36.8504 33.9707 36.6484C33.9997 36.4474 34.0137 36.1675 34.0137 35.8125V35.1855C34.0137 34.8035 34.0025 34.5097 33.9785 34.3027C33.9545 34.0957 33.9116 33.9464 33.8516 33.8594C33.7906 33.7724 33.7038 33.7285 33.5918 33.7285Z" fill="white"/>
<path d="M57.8299 35.5V31.084L54.6619 24.076H57.6059L59.2539 28.14L60.8699 24.076H63.7819L60.6299 31.084V35.5H57.8299ZM68.8156 35.66C68.0476 35.66 67.381 35.532 66.8156 35.276C66.2503 35.02 65.7863 34.6413 65.4236 34.14C65.061 33.6387 64.789 33.0253 64.6076 32.3C64.4263 31.564 64.3356 30.7213 64.3356 29.772C64.3356 28.492 64.4956 27.42 64.8156 26.556C65.1463 25.6813 65.6423 25.02 66.3036 24.572C66.965 24.124 67.8023 23.9 68.8156 23.9C69.5836 23.9 70.2503 24.0333 70.8156 24.3C71.381 24.556 71.845 24.9347 72.2076 25.436C72.581 25.9373 72.853 26.556 73.0236 27.292C73.205 28.0173 73.2956 28.8493 73.2956 29.788C73.2956 30.716 73.205 31.548 73.0236 32.284C72.853 33.0093 72.5863 33.6227 72.2236 34.124C71.861 34.6253 71.397 35.0093 70.8316 35.276C70.2663 35.532 69.5943 35.66 68.8156 35.66ZM68.8156 33.26C69.221 33.26 69.541 33.1373 69.7756 32.892C70.0103 32.6467 70.1756 32.2627 70.2716 31.74C70.3783 31.2173 70.4316 30.5507 70.4316 29.74C70.4316 28.5667 70.3143 27.7027 70.0796 27.148C69.8556 26.5933 69.4343 26.316 68.8156 26.316C68.421 26.316 68.1063 26.4333 67.8716 26.668C67.637 26.892 67.4663 27.26 67.3596 27.772C67.253 28.2733 67.1996 28.94 67.1996 29.772C67.1996 30.5933 67.2476 31.2653 67.3436 31.788C67.4503 32.3 67.621 32.6733 67.8556 32.908C68.101 33.1427 68.421 33.26 68.8156 33.26ZM78.4094 35.66C77.556 35.66 76.8147 35.4947 76.1854 35.164C75.5667 34.8333 75.0867 34.348 74.7454 33.708C74.4147 33.068 74.2494 32.284 74.2494 31.356V24.076H77.0494V31.132C77.0494 31.644 77.0974 32.0493 77.1934 32.348C77.2894 32.6467 77.4334 32.86 77.6254 32.988C77.8174 33.116 78.0627 33.18 78.3614 33.18C78.66 33.18 78.9107 33.116 79.1134 32.988C79.3267 32.86 79.4867 32.6467 79.5934 32.348C79.7107 32.0493 79.7694 31.6387 79.7694 31.116V24.076H82.5694V31.292C82.5694 32.1987 82.4094 32.9773 82.0894 33.628C81.7694 34.2787 81.3 34.78 80.6814 35.132C80.0627 35.484 79.3054 35.66 78.4094 35.66ZM86.5951 35.5V26.476H83.5231V24.076H92.4831V26.476H89.3951V35.5H86.5951ZM97.5969 35.66C96.7435 35.66 96.0022 35.4947 95.3729 35.164C94.7542 34.8333 94.2742 34.348 93.9329 33.708C93.6022 33.068 93.4369 32.284 93.4369 31.356V24.076H96.2369V31.132C96.2369 31.644 96.2849 32.0493 96.3809 32.348C96.4769 32.6467 96.6209 32.86 96.8129 32.988C97.0049 33.116 97.2502 33.18 97.5489 33.18C97.8475 33.18 98.0982 33.116 98.3009 32.988C98.5142 32.86 98.6742 32.6467 98.7809 32.348C98.8982 32.0493 98.9569 31.6387 98.9569 31.116V24.076H101.757V31.292C101.757 32.1987 101.597 32.9773 101.277 33.628C100.957 34.2787 100.488 34.78 99.8689 35.132C99.2502 35.484 98.4929 35.66 97.5969 35.66ZM103.351 35.5V24.076H107.191C108.62 24.076 109.66 24.3107 110.311 24.78C110.972 25.2493 111.303 25.948 111.303 26.876C111.303 27.6333 111.127 28.22 110.775 28.636C110.433 29.052 110.06 29.3187 109.655 29.436V29.516C109.996 29.612 110.305 29.7667 110.583 29.98C110.871 30.1827 111.095 30.46 111.255 30.812C111.425 31.1533 111.511 31.5907 111.511 32.124C111.511 32.828 111.351 33.4307 111.031 33.932C110.711 34.4333 110.257 34.8227 109.671 35.1C109.095 35.3667 108.401 35.5 107.591 35.5H103.351ZM107.351 33.292C107.884 33.292 108.268 33.1533 108.503 32.876C108.748 32.5987 108.871 32.2787 108.871 31.916C108.871 31.6707 108.817 31.452 108.711 31.26C108.604 31.068 108.433 30.9133 108.199 30.796C107.975 30.6787 107.676 30.62 107.303 30.62H105.879V33.292H107.351ZM107.207 28.556C107.719 28.556 108.092 28.4387 108.327 28.204C108.572 27.9587 108.695 27.6707 108.695 27.34C108.695 27.0093 108.572 26.7533 108.327 26.572C108.081 26.38 107.692 26.284 107.159 26.284H105.879V28.556H107.207ZM112.944 35.5V24.076H120.624V26.476H115.68V28.428H120.416V30.828H115.68V33.1H120.624V35.5H112.944Z" fill="#FCFCFD"/>
</svg>
