<svg width="153" height="60" viewBox="0 0 153 60" fill="none" xmlns="http://www.w3.org/2000/svg">
<rect x="10" y="10" width="133" height="40" rx="9.3" fill="#363738"/>
<path d="M39 21H25C23.895 21 23 21.895 23 23V37C23 38.105 23.895 39 25 39H39C40.105 39 41 38.105 41 37V23C41 21.895 40.105 21 39 21ZM29 35H26.477V28H29V35ZM27.694 26.717C26.923 26.717 26.408 26.203 26.408 25.517C26.408 24.831 26.922 24.317 27.779 24.317C28.55 24.317 29.065 24.831 29.065 25.517C29.065 26.203 28.551 26.717 27.694 26.717ZM38 35H35.558V31.174C35.558 30.116 34.907 29.872 34.663 29.872C34.419 29.872 33.605 30.035 33.605 31.174C33.605 31.337 33.605 35 33.605 35H31.082V28H33.605V28.977C33.93 28.407 34.581 28 35.802 28C37.023 28 38 28.977 38 31.174V35Z" fill="white"/>
<path d="M55.325 35.5V24.076H58.125V33.02H62.765V35.5H55.325ZM64.8388 35.5V33.5L67.1588 33.244V26.332L64.8388 26.076V24.076H72.1988V26.076L69.8628 26.332V33.244L72.1988 33.5V35.5H64.8388ZM73.9525 35.5V24.076H77.7445L79.9045 32.988H79.9685C79.9365 32.6253 79.9045 32.284 79.8725 31.964C79.8512 31.644 79.8298 31.3453 79.8085 31.068C79.7978 30.78 79.7872 30.508 79.7765 30.252C79.7658 29.996 79.7605 29.74 79.7605 29.484V24.076H82.2725V35.5H78.5765L76.3525 26.668H76.2885C76.3312 27.212 76.3632 27.6653 76.3845 28.028C76.4058 28.3907 76.4218 28.6947 76.4325 28.94C76.4432 29.1853 76.4485 29.4093 76.4485 29.612C76.4592 29.8147 76.4645 30.028 76.4645 30.252V35.5H73.9525ZM83.5463 35.5V24.076H86.2663V29.292C86.3729 29.0467 86.4796 28.8173 86.5863 28.604C86.7036 28.38 86.8209 28.1613 86.9383 27.948L89.0983 24.076H92.1063L88.9543 29.18L92.0743 35.5H88.9543L87.0182 31.308L86.2663 31.98V35.5H83.5463ZM93.46 35.5V24.076H101.14V26.476H96.196V28.428H100.932V30.828H96.196V33.1H101.14V35.5H93.46ZM102.734 35.5V24.076H106.19C107.288 24.076 108.222 24.2893 108.99 24.716C109.758 25.132 110.344 25.7453 110.75 26.556C111.166 27.3667 111.374 28.364 111.374 29.548C111.374 30.8387 111.15 31.9267 110.702 32.812C110.264 33.6973 109.64 34.3693 108.83 34.828C108.03 35.276 107.075 35.5 105.966 35.5H102.734ZM105.998 33.18C106.862 33.18 107.502 32.8813 107.918 32.284C108.334 31.6867 108.542 30.812 108.542 29.66C108.542 28.924 108.451 28.316 108.27 27.836C108.099 27.3453 107.838 26.9827 107.486 26.748C107.134 26.5133 106.696 26.396 106.174 26.396H105.39V33.18H105.998ZM112.808 35.5V33.5L115.128 33.244V26.332L112.808 26.076V24.076H120.168V26.076L117.832 26.332V33.244L120.168 33.5V35.5H112.808ZM121.921 35.5V24.076H125.713L127.873 32.988H127.937C127.905 32.6253 127.873 32.284 127.841 31.964C127.82 31.644 127.799 31.3453 127.777 31.068C127.767 30.78 127.756 30.508 127.745 30.252C127.735 29.996 127.729 29.74 127.729 29.484V24.076H130.241V35.5H126.545L124.321 26.668H124.257C124.3 27.212 124.332 27.6653 124.353 28.028C124.375 28.3907 124.391 28.6947 124.401 28.94C124.412 29.1853 124.417 29.4093 124.417 29.612C124.428 29.8147 124.433 30.028 124.433 30.252V35.5H121.921Z" fill="#FCFCFD"/>
</svg>
