<svg width="153" height="60" viewBox="0 0 153 60" fill="none" xmlns="http://www.w3.org/2000/svg">
<rect x="10" y="10" width="133" height="40" rx="9.3" fill="#363738"/>
<path d="M32 20C26.477 20 22 24.477 22 30C22 35.013 25.693 39.153 30.505 39.876V32.65H28.031V30.021H30.505V28.272C30.505 25.376 31.916 24.105 34.323 24.105C35.476 24.105 36.085 24.19 36.374 24.229V26.523H34.732C33.71 26.523 33.353 27.492 33.353 28.584V30.021H36.348L35.942 32.65H33.354V39.897C38.235 39.236 42 35.062 42 30C42 24.477 37.523 20 32 20Z" fill="white"/>
<path d="M55.085 35.5V24.076H62.765V26.476H57.821V28.86H62.573V31.26H57.821V35.5H55.085ZM63.7988 35.5L66.6788 24.028H70.3428L73.2388 35.5H70.4548L69.0788 28.732C69.0254 28.4547 68.9614 28.1453 68.8868 27.804C68.8228 27.4627 68.7588 27.1267 68.6948 26.796C68.6414 26.4653 68.5934 26.1827 68.5508 25.948C68.5188 26.1827 68.4708 26.4653 68.4068 26.796C68.3428 27.1267 68.2734 27.4627 68.1988 27.804C68.1348 28.1453 68.0708 28.4547 68.0068 28.732L66.5188 35.5H63.7988ZM66.6148 33.148L66.9508 30.892H70.0228L70.2948 33.148H66.6148ZM78.6405 35.66C77.6058 35.66 76.7418 35.4253 76.0485 34.956C75.3552 34.4867 74.8325 33.8253 74.4805 32.972C74.1285 32.108 73.9525 31.0947 73.9525 29.932C73.9525 28.9827 74.0752 28.1347 74.3205 27.388C74.5658 26.6413 74.9232 26.012 75.3925 25.5C75.8618 24.9773 76.4272 24.5827 77.0885 24.316C77.7605 24.0493 78.5178 23.916 79.3605 23.916C79.8618 23.916 80.3525 23.9693 80.8325 24.076C81.3232 24.172 81.8298 24.3267 82.3525 24.54L81.6005 26.908C81.2272 26.7267 80.8485 26.5987 80.4645 26.524C80.0805 26.4387 79.7285 26.396 79.4085 26.396C78.9178 26.396 78.5018 26.4813 78.1605 26.652C77.8192 26.812 77.5472 27.0467 77.3445 27.356C77.1525 27.6653 77.0085 28.0387 76.9125 28.476C76.8272 28.9133 76.7845 29.404 76.7845 29.948C76.7845 30.7267 76.8645 31.356 77.0245 31.836C77.1952 32.3053 77.4512 32.652 77.7925 32.876C78.1445 33.0893 78.5872 33.196 79.1205 33.196C79.5472 33.196 80.0165 33.132 80.5285 33.004C81.0405 32.876 81.5045 32.684 81.9205 32.428V35.004C81.4192 35.228 80.8858 35.3933 80.3205 35.5C79.7552 35.6067 79.1952 35.66 78.6405 35.66ZM83.8663 35.5V24.076H91.5463V26.476H86.6023V28.428H91.3383V30.828H86.6023V33.1H91.5463V35.5H83.8663ZM93.46 35.5V24.076H97.3C98.7293 24.076 99.7693 24.3107 100.42 24.78C101.081 25.2493 101.412 25.948 101.412 26.876C101.412 27.6333 101.236 28.22 100.884 28.636C100.543 29.052 100.169 29.3187 99.764 29.436V29.516C100.105 29.612 100.415 29.7667 100.692 29.98C100.98 30.1827 101.204 30.46 101.364 30.812C101.535 31.1533 101.62 31.5907 101.62 32.124C101.62 32.828 101.46 33.4307 101.14 33.932C100.82 34.4333 100.367 34.8227 99.78 35.1C99.204 35.3667 98.5107 35.5 97.7 35.5H93.46ZM97.46 33.292C97.9933 33.292 98.3773 33.1533 98.612 32.876C98.8573 32.5987 98.98 32.2787 98.98 31.916C98.98 31.6707 98.9267 31.452 98.82 31.26C98.7133 31.068 98.5427 30.9133 98.308 30.796C98.084 30.6787 97.7853 30.62 97.412 30.62H95.988V33.292H97.46ZM97.316 28.556C97.828 28.556 98.2013 28.4387 98.436 28.204C98.6813 27.9587 98.804 27.6707 98.804 27.34C98.804 27.0093 98.6813 26.7533 98.436 26.572C98.1907 26.38 97.8013 26.284 97.268 26.284H95.988V28.556H97.316ZM106.894 35.66C106.126 35.66 105.459 35.532 104.894 35.276C104.328 35.02 103.864 34.6413 103.502 34.14C103.139 33.6387 102.867 33.0253 102.686 32.3C102.504 31.564 102.414 30.7213 102.414 29.772C102.414 28.492 102.574 27.42 102.894 26.556C103.224 25.6813 103.72 25.02 104.382 24.572C105.043 24.124 105.88 23.9 106.894 23.9C107.662 23.9 108.328 24.0333 108.894 24.3C109.459 24.556 109.923 24.9347 110.286 25.436C110.659 25.9373 110.931 26.556 111.102 27.292C111.283 28.0173 111.374 28.8493 111.374 29.788C111.374 30.716 111.283 31.548 111.102 32.284C110.931 33.0093 110.664 33.6227 110.302 34.124C109.939 34.6253 109.475 35.0093 108.91 35.276C108.344 35.532 107.672 35.66 106.894 35.66ZM106.894 33.26C107.299 33.26 107.619 33.1373 107.854 32.892C108.088 32.6467 108.254 32.2627 108.35 31.74C108.456 31.2173 108.51 30.5507 108.51 29.74C108.51 28.5667 108.392 27.7027 108.158 27.148C107.934 26.5933 107.512 26.316 106.894 26.316C106.499 26.316 106.184 26.4333 105.95 26.668C105.715 26.892 105.544 27.26 105.438 27.772C105.331 28.2733 105.278 28.94 105.278 29.772C105.278 30.5933 105.326 31.2653 105.422 31.788C105.528 32.3 105.699 32.6733 105.934 32.908C106.179 33.1427 106.499 33.26 106.894 33.26ZM116.488 35.66C115.72 35.66 115.053 35.532 114.488 35.276C113.922 35.02 113.458 34.6413 113.096 34.14C112.733 33.6387 112.461 33.0253 112.28 32.3C112.098 31.564 112.008 30.7213 112.008 29.772C112.008 28.492 112.168 27.42 112.488 26.556C112.818 25.6813 113.314 25.02 113.976 24.572C114.637 24.124 115.474 23.9 116.488 23.9C117.256 23.9 117.922 24.0333 118.488 24.3C119.053 24.556 119.517 24.9347 119.88 25.436C120.253 25.9373 120.525 26.556 120.696 27.292C120.877 28.0173 120.968 28.8493 120.968 29.788C120.968 30.716 120.877 31.548 120.696 32.284C120.525 33.0093 120.258 33.6227 119.896 34.124C119.533 34.6253 119.069 35.0093 118.504 35.276C117.938 35.532 117.266 35.66 116.488 35.66ZM116.488 33.26C116.893 33.26 117.213 33.1373 117.448 32.892C117.682 32.6467 117.848 32.2627 117.944 31.74C118.05 31.2173 118.104 30.5507 118.104 29.74C118.104 28.5667 117.986 27.7027 117.752 27.148C117.528 26.5933 117.106 26.316 116.488 26.316C116.093 26.316 115.778 26.4333 115.544 26.668C115.309 26.892 115.138 27.26 115.032 27.772C114.925 28.2733 114.872 28.94 114.872 29.772C114.872 30.5933 114.92 31.2653 115.016 31.788C115.122 32.3 115.293 32.6733 115.528 32.908C115.773 33.1427 116.093 33.26 116.488 33.26ZM121.921 35.5V24.076H124.641V29.292C124.748 29.0467 124.855 28.8173 124.961 28.604C125.079 28.38 125.196 28.1613 125.313 27.948L127.473 24.076H130.481L127.329 29.18L130.449 35.5H127.329L125.393 31.308L124.641 31.98V35.5H121.921Z" fill="#FCFCFD"/>
</svg>
