<svg width="144" height="60" viewBox="0 0 144 60" fill="none" xmlns="http://www.w3.org/2000/svg">
<rect x="10" y="10" width="124" height="40" rx="9.3" fill="#363738"/>
<path d="M42 21.999C41.22 22.462 39.655 23.093 38.735 23.275C38.708 23.282 38.686 23.291 38.66 23.298C37.847 22.496 36.733 21.999 35.5 21.999C33.015 21.999 31 24.014 31 26.499C31 26.63 30.989 26.871 31 26.999C27.647 26.999 25.095 25.243 23.265 22.999C23.066 23.499 22.979 24.289 22.979 25.031C22.979 26.432 24.074 27.808 25.779 28.661C25.465 28.742 25.119 28.8 24.759 28.8C24.178 28.8 23.563 28.647 23 28.183C23 28.2 23 28.216 23 28.234C23 30.192 25.078 31.525 26.926 31.896C26.551 32.117 25.795 32.139 25.426 32.139C25.166 32.139 24.246 32.02 24 31.974C24.514 33.579 26.368 34.481 28.135 34.513C26.753 35.597 25.794 35.999 22.964 35.999H22C23.788 37.145 26.065 38 28.347 38C35.777 38 40 32.337 40 26.999C40 26.913 39.998 26.733 39.995 26.552C39.995 26.534 40 26.517 40 26.499C40 26.472 39.992 26.446 39.992 26.419C39.989 26.283 39.986 26.156 39.983 26.09C40.773 25.52 41.458 24.809 42 23.999C41.275 24.321 40.497 24.537 39.68 24.635C40.514 24.135 41.699 22.943 42 21.999Z" fill="white"/>
<path d="M57.8139 35.5V26.476H54.7419V24.076H63.7019V26.476H60.6139V35.5H57.8139ZM64.6716 35.5L64.0956 24.076H66.3836C66.4476 25.0573 66.4956 25.852 66.5276 26.46C66.5703 27.068 66.6023 27.5587 66.6236 27.932C66.6556 28.2947 66.6716 28.604 66.6716 28.86C66.6823 29.116 66.6876 29.388 66.6876 29.676C66.6876 29.868 66.6876 30.0707 66.6876 30.284C66.6876 30.4973 66.6823 30.7213 66.6716 30.956C66.6716 31.18 66.6716 31.42 66.6716 31.676C66.6716 31.9213 66.6663 32.1773 66.6556 32.444C66.6556 32.7 66.6556 32.9667 66.6556 33.244H66.7356C66.757 33.0093 66.789 32.7107 66.8316 32.348C66.8743 31.9853 66.9223 31.6067 66.9756 31.212C67.029 30.8067 67.0823 30.428 67.1356 30.076C67.189 29.7133 67.2316 29.4147 67.2636 29.18L67.6316 26.668H69.9996L70.3196 29.196C70.3516 29.4307 70.3836 29.7293 70.4156 30.092C70.4583 30.4547 70.501 30.8333 70.5436 31.228C70.597 31.6227 70.645 32.0013 70.6876 32.364C70.7303 32.7267 70.7676 33.0253 70.7996 33.26H70.8796C70.8796 32.9507 70.8796 32.6573 70.8796 32.38C70.8796 32.092 70.8743 31.82 70.8636 31.564C70.8636 31.308 70.8583 31.0627 70.8476 30.828C70.8476 30.5827 70.8476 30.3533 70.8476 30.14C70.8476 29.916 70.8476 29.7027 70.8476 29.5C70.8476 29.212 70.8476 28.956 70.8476 28.732C70.8583 28.4973 70.869 28.2573 70.8796 28.012C70.8903 27.7667 70.9063 27.4787 70.9276 27.148C70.949 26.8173 70.9756 26.4067 71.0076 25.916C71.0503 25.4147 71.093 24.8013 71.1356 24.076H73.5356L72.8956 35.5H69.4876L69.2156 33.212C69.1836 32.9027 69.141 32.524 69.0876 32.076C69.0343 31.6173 68.981 31.1587 68.9276 30.7C68.885 30.2413 68.8476 29.8627 68.8156 29.564H68.7676C68.7463 29.8627 68.709 30.2413 68.6556 30.7C68.613 31.1587 68.565 31.6173 68.5116 32.076C68.469 32.524 68.4316 32.9027 68.3996 33.212L68.1756 35.5H64.6716ZM74.7294 35.5V33.5L77.0494 33.244V26.332L74.7294 26.076V24.076H82.0894V26.076L79.7534 26.332V33.244L82.0894 33.5V35.5H74.7294ZM86.5951 35.5V26.476H83.5231V24.076H92.4831V26.476H89.3951V35.5H86.5951ZM96.1889 35.5V26.476H93.1169V24.076H102.077V26.476H98.9889V35.5H96.1889ZM103.351 35.5V24.076H111.031V26.476H106.087V28.428H110.823V30.828H106.087V33.1H111.031V35.5H103.351ZM112.944 35.5V24.076H116.544C117.494 24.076 118.272 24.204 118.88 24.46C119.499 24.7053 119.958 25.0733 120.256 25.564C120.566 26.0547 120.72 26.6627 120.72 27.388C120.72 27.868 120.656 28.3 120.528 28.684C120.4 29.0573 120.203 29.3987 119.936 29.708C119.68 30.0067 119.36 30.2787 118.976 30.524L121.504 35.5H118.528L116.688 31.372H115.568V35.5H112.944ZM116.528 29.052C116.816 29.052 117.078 29.004 117.312 28.908C117.547 28.812 117.734 28.6627 117.872 28.46C118.011 28.2573 118.08 27.9907 118.08 27.66C118.08 27.2653 117.958 26.956 117.712 26.732C117.478 26.508 117.11 26.396 116.608 26.396H115.568V29.052H116.528Z" fill="#FCFCFD"/>
</svg>
